<svg width="22" height="23" viewBox="0 0 22 23" fill="none" xmlns="http://www.w3.org/2000/svg">
<path opacity="0.4" d="M20.5691 10.8977V16.8877C20.5691 19.6477 18.3291 21.8877 15.5691 21.8877H6.8291C6.5991 21.8877 6.36911 21.8677 6.14911 21.8377C6.51911 21.6777 6.84911 21.4577 7.14911 21.1877C7.18911 21.1577 7.21908 21.1277 7.24908 21.0877C7.51908 20.8577 7.74909 20.5677 7.93909 20.2477C8.30909 19.6477 8.5191 18.9377 8.5191 18.1877C8.5191 17.1377 8.1091 16.1877 7.4491 15.4677C7.3491 15.3577 7.23908 15.2477 7.11908 15.1577C6.41908 14.5477 5.5191 14.1877 4.5191 14.1877C3.8091 14.1877 3.13908 14.3777 2.55908 14.7077C2.36908 14.8077 2.1891 14.9277 2.0191 15.0677C1.9491 15.1177 1.8891 15.1777 1.8291 15.2377V10.9677C2.5891 11.7877 3.66911 12.2577 4.83911 12.2577C6.09911 12.2577 7.30909 11.6277 8.06909 10.6177C8.74909 11.6277 9.9091 12.2577 11.1991 12.2577C12.4791 12.2577 13.6191 11.6577 14.3091 10.6577C15.0791 11.6477 16.2691 12.2577 17.5091 12.2577C18.7191 12.2577 19.8191 11.7677 20.5691 10.8977Z" fill="#67C5CC"/>
<path d="M14.1891 0.757568H8.18906L7.44907 8.11755C7.38907 8.79755 7.48905 9.43758 7.73905 10.0176C8.31905 11.3776 9.67907 12.2576 11.1991 12.2576C12.7391 12.2576 14.0691 11.3976 14.6691 10.0276C14.8491 9.59759 14.9591 9.09759 14.9691 8.58759V8.39758L14.1891 0.757568Z" fill="#67C5CC"/>
<path opacity="0.6" d="M21.5592 7.77759L21.2792 4.99756C20.8592 1.97756 19.4892 0.747559 16.5592 0.747559H12.7192L13.4592 8.24756C13.4692 8.34756 13.4792 8.45758 13.4792 8.64758C13.5392 9.16758 13.6992 9.64758 13.9392 10.0776C14.6592 11.3976 16.0592 12.2476 17.5192 12.2476C18.8492 12.2476 20.0493 11.6576 20.7993 10.6176C21.3893 9.82755 21.6592 8.81759 21.5592 7.77759Z" fill="#67C5CC"/>
<path opacity="0.6" d="M5.78887 0.757568C2.84887 0.757568 1.48883 1.98754 1.05883 5.03754L0.788868 7.78754C0.688868 8.85754 0.978876 9.89758 1.60888 10.7076C2.36888 11.6976 3.53886 12.2576 4.83886 12.2576C6.29886 12.2576 7.69886 11.4075 8.40886 10.1075C8.66886 9.65754 8.83884 9.13753 8.88884 8.59753L9.66887 0.767578H5.78887V0.757568Z" fill="#67C5CC"/>
<path d="M7.44904 15.4675C7.34904 15.3575 7.23902 15.2475 7.11902 15.1575C6.41902 14.5475 5.51904 14.1875 4.51904 14.1875C3.80904 14.1875 3.13902 14.3775 2.55902 14.7075C2.36902 14.8075 2.18904 14.9275 2.01904 15.0675C1.09904 15.7975 0.519043 16.9275 0.519043 18.1875C0.519043 18.9375 0.72906 19.6475 1.09906 20.2475C1.18906 20.4075 1.29907 20.5575 1.41907 20.6975C1.43907 20.7275 1.46901 20.7475 1.48901 20.7775C2.20901 21.6375 3.29904 22.1875 4.51904 22.1875C5.52904 22.1875 6.44905 21.8175 7.14905 21.1875C7.18905 21.1575 7.21902 21.1275 7.24902 21.0875C7.51902 20.8575 7.74903 20.5675 7.93903 20.2475C8.30903 19.6475 8.51904 18.9375 8.51904 18.1875C8.51904 17.1375 8.10904 16.1875 7.44904 15.4675ZM6.01904 18.9175H5.26904V19.6975C5.26904 20.1075 4.92904 20.4475 4.51904 20.4475C4.10904 20.4475 3.76904 20.1075 3.76904 19.6975V18.9175H3.01904C2.60904 18.9175 2.26904 18.5775 2.26904 18.1675C2.26904 17.7575 2.60904 17.4175 3.01904 17.4175H3.76904V16.7075C3.76904 16.2975 4.10904 15.9575 4.51904 15.9575C4.92904 15.9575 5.26904 16.2975 5.26904 16.7075V17.4175H6.01904C6.42904 17.4175 6.76904 17.7575 6.76904 18.1675C6.76904 18.5775 6.42904 18.9175 6.01904 18.9175Z" fill="#67C5CC"/>
</svg>
