<svg width="25" height="25" viewBox="0 0 25 25" fill="none" xmlns="http://www.w3.org/2000/svg">
<path opacity="0.4" d="M22.1401 7.50656C22.1401 7.30656 22.0602 7.11659 21.9202 6.97659L18.2001 3.25656C17.9101 2.96656 17.4301 2.96656 17.1401 3.25656C16.8501 3.54656 16.8501 4.02656 17.1401 4.31656L19.5901 6.76657H3.39014C2.98014 6.76657 2.64014 7.10657 2.64014 7.51657C2.64014 7.92657 2.98014 8.26657 3.39014 8.26657H19.5801L17.1401 10.7066C16.8501 10.9966 16.8501 11.4766 17.1401 11.7666C17.2901 11.9166 17.4802 11.9866 17.6702 11.9866C17.8602 11.9866 18.0501 11.9166 18.2001 11.7666L21.9102 8.05661C21.9802 7.98661 22.0401 7.8966 22.0801 7.7966C22.0801 7.7866 22.0801 7.77657 22.0901 7.76657C22.1201 7.67657 22.1401 7.59656 22.1401 7.50656Z" fill="#67C5CC"/>
<path d="M21.3901 17.2966H5.20013L7.64014 14.8566C7.93014 14.5666 7.93014 14.0866 7.64014 13.7966C7.35014 13.5066 6.87014 13.5066 6.58014 13.7966L2.87012 17.5066C2.80012 17.5766 2.74013 17.6666 2.70013 17.7666C2.70013 17.7766 2.70012 17.7866 2.69012 17.7966C2.66012 17.8766 2.64014 17.9666 2.64014 18.0566C2.64014 18.2566 2.72011 18.4466 2.86011 18.5866L6.58014 22.3066C6.73014 22.4566 6.92011 22.5266 7.11011 22.5266C7.30011 22.5266 7.49014 22.4566 7.64014 22.3066C7.93014 22.0166 7.93014 21.5366 7.64014 21.2466L5.19012 18.7966H21.3901C21.8001 18.7966 22.1401 18.4566 22.1401 18.0466C22.1401 17.6366 21.8001 17.2966 21.3901 17.2966Z" fill="#67C5CC"/>
</svg>
