<svg width="25" height="25" viewBox="0 0 25 25" fill="none" xmlns="http://www.w3.org/2000/svg">
<path opacity="0.4" d="M20.4304 7.7799L14.6704 3.7499C13.1004 2.6499 10.6904 2.7099 9.18037 3.8799L4.17037 7.7899C3.17037 8.5699 2.38037 10.1699 2.38037 11.4299V18.3299C2.38037 20.8799 4.45037 22.9599 7.00037 22.9599H17.7804C20.3304 22.9599 22.4004 20.8899 22.4004 18.3399V11.5599C22.4004 10.2099 21.5304 8.5499 20.4304 7.7799Z" fill="#67C5CC"/>
<path d="M12.3901 19.71C11.9801 19.71 11.6401 19.37 11.6401 18.96V15.96C11.6401 15.55 11.9801 15.21 12.3901 15.21C12.8001 15.21 13.1401 15.55 13.1401 15.96V18.96C13.1401 19.37 12.8001 19.71 12.3901 19.71Z" fill="#67C5CC"/>
</svg>
